<svg width="1018" height="726" viewBox="0 0 1018 726" fill="none" xmlns="http://www.w3.org/2000/svg">
<rect width="1018" height="726" rx="30" fill="white"/>
<path d="M574.293 102.293C573.902 102.683 573.902 103.317 574.293 103.707L580.657 110.071C581.047 110.462 581.681 110.462 582.071 110.071C582.462 109.681 582.462 109.047 582.071 108.657L576.414 103L582.071 97.3431C582.462 96.9526 582.462 96.3195 582.071 95.9289C581.681 95.5384 581.047 95.5384 580.657 95.9289L574.293 102.293ZM673.707 103.707C674.098 103.317 674.098 102.683 673.707 102.293L667.343 95.9289C666.953 95.5384 666.319 95.5384 665.929 95.9289C665.538 96.3195 665.538 96.9526 665.929 97.3431L671.586 103L665.929 108.657C665.538 109.047 665.538 109.681 665.929 110.071C666.319 110.462 666.953 110.462 667.343 110.071L673.707 103.707ZM575 104L673 104V102L575 102V104Z" fill="black"/>
<path d="M739 252.226L733.226 258L739 263.774L744.774 258L739 252.226ZM738.293 356.707C738.683 357.098 739.317 357.098 739.707 356.707L746.071 350.343C746.462 349.953 746.462 349.319 746.071 348.929C745.681 348.538 745.047 348.538 744.657 348.929L739 354.586L733.343 348.929C732.953 348.538 732.319 348.538 731.929 348.929C731.538 349.319 731.538 349.953 731.929 350.343L738.293 356.707ZM738 258L738 356L740 356L740 258L738 258Z" fill="black"/>
<path d="M930 448.227L924.226 454L930 459.774L935.774 454L930 448.227ZM931 604V454H929V604H931Z" fill="black"/>
<line x1="476.619" y1="258" x2="739.381" y2="258" stroke="black" stroke-width="2"/>
<rect x="88" y="357" width="243" height="268" rx="9" fill="white" stroke="black" stroke-width="2"/>
<rect x="110" y="475" width="198" height="48" rx="9" fill="white" stroke="black" stroke-width="2"/>
<rect x="110" y="545" width="198" height="48" rx="9" fill="white" stroke="black" stroke-width="2"/>
<path d="M190.466 508V506.466L197.898 496.92V496.784H190.705V494.909H200.489V496.511L193.261 505.989V506.125H200.727V508H190.466ZM205.837 490.545V508H203.825V490.545H205.837ZM209.521 508V494.909H211.532V508H209.521ZM210.543 492.727C210.151 492.727 209.813 492.594 209.529 492.327C209.251 492.06 209.112 491.739 209.112 491.364C209.112 490.989 209.251 490.668 209.529 490.401C209.813 490.134 210.151 490 210.543 490C210.935 490 211.271 490.134 211.549 490.401C211.833 490.668 211.975 490.989 211.975 491.364C211.975 491.739 211.833 492.06 211.549 492.327C211.271 492.594 210.935 492.727 210.543 492.727ZM215.489 508V490.545H217.5V496.989H217.67C217.818 496.761 218.023 496.472 218.284 496.119C218.551 495.761 218.932 495.443 219.426 495.165C219.926 494.881 220.602 494.739 221.455 494.739C222.557 494.739 223.528 495.014 224.369 495.565C225.21 496.116 225.866 496.898 226.338 497.909C226.81 498.92 227.045 500.114 227.045 501.489C227.045 502.875 226.81 504.077 226.338 505.094C225.866 506.105 225.213 506.889 224.378 507.446C223.543 507.997 222.58 508.273 221.489 508.273C220.648 508.273 219.974 508.134 219.469 507.855C218.963 507.571 218.574 507.25 218.301 506.892C218.028 506.528 217.818 506.227 217.67 505.989H217.432V508H215.489ZM217.466 501.455C217.466 502.443 217.611 503.315 217.901 504.071C218.19 504.821 218.614 505.409 219.17 505.835C219.727 506.256 220.409 506.466 221.216 506.466C222.057 506.466 222.759 506.244 223.321 505.801C223.889 505.352 224.315 504.75 224.599 503.994C224.889 503.233 225.034 502.386 225.034 501.455C225.034 500.534 224.892 499.705 224.608 498.966C224.33 498.222 223.906 497.634 223.338 497.202C222.776 496.764 222.068 496.545 221.216 496.545C220.398 496.545 219.71 496.753 219.153 497.168C218.597 497.577 218.176 498.151 217.892 498.889C217.608 499.622 217.466 500.477 217.466 501.455Z" fill="black"/>
<path d="M184.841 578V564.909H186.784V566.886H186.92C187.159 566.239 187.591 565.713 188.216 565.31C188.841 564.906 189.545 564.705 190.33 564.705C190.477 564.705 190.662 564.707 190.884 564.713C191.105 564.719 191.273 564.727 191.386 564.739V566.784C191.318 566.767 191.162 566.741 190.918 566.707C190.679 566.668 190.426 566.648 190.159 566.648C189.523 566.648 188.955 566.781 188.455 567.048C187.96 567.31 187.568 567.673 187.278 568.139C186.994 568.599 186.852 569.125 186.852 569.716V578H184.841ZM197.623 578.307C196.793 578.307 196.04 578.151 195.364 577.838C194.688 577.52 194.151 577.062 193.754 576.466C193.356 575.864 193.157 575.136 193.157 574.284C193.157 573.534 193.305 572.926 193.6 572.46C193.896 571.989 194.29 571.619 194.785 571.352C195.279 571.085 195.825 570.886 196.421 570.756C197.023 570.619 197.629 570.511 198.237 570.432C199.032 570.33 199.677 570.253 200.171 570.202C200.671 570.145 201.035 570.051 201.262 569.92C201.495 569.79 201.612 569.562 201.612 569.239V569.17C201.612 568.33 201.381 567.676 200.921 567.21C200.467 566.744 199.776 566.511 198.85 566.511C197.89 566.511 197.137 566.722 196.592 567.142C196.046 567.562 195.663 568.011 195.441 568.489L193.532 567.807C193.873 567.011 194.327 566.392 194.896 565.949C195.469 565.5 196.094 565.187 196.771 565.011C197.452 564.83 198.123 564.739 198.782 564.739C199.202 564.739 199.685 564.79 200.231 564.892C200.782 564.989 201.313 565.19 201.825 565.497C202.342 565.804 202.771 566.267 203.112 566.886C203.452 567.506 203.623 568.335 203.623 569.375V578H201.612V576.227H201.509C201.373 576.511 201.146 576.815 200.827 577.139C200.509 577.463 200.086 577.739 199.558 577.966C199.029 578.193 198.384 578.307 197.623 578.307ZM197.93 576.5C198.725 576.5 199.396 576.344 199.941 576.031C200.492 575.719 200.907 575.315 201.185 574.821C201.469 574.327 201.612 573.807 201.612 573.261V571.42C201.526 571.523 201.339 571.616 201.049 571.702C200.765 571.781 200.435 571.852 200.06 571.915C199.691 571.972 199.33 572.023 198.978 572.068C198.631 572.108 198.35 572.142 198.134 572.17C197.612 572.239 197.123 572.349 196.668 572.503C196.219 572.651 195.856 572.875 195.577 573.176C195.305 573.472 195.168 573.875 195.168 574.386C195.168 575.085 195.427 575.614 195.944 575.972C196.467 576.324 197.129 576.5 197.93 576.5ZM209.305 570.125V578H207.294V564.909H209.237V566.955H209.408C209.714 566.29 210.18 565.756 210.805 565.352C211.43 564.943 212.237 564.739 213.226 564.739C214.112 564.739 214.888 564.92 215.553 565.284C216.217 565.642 216.734 566.188 217.104 566.92C217.473 567.648 217.658 568.568 217.658 569.682V578H215.646V569.818C215.646 568.79 215.379 567.989 214.845 567.415C214.311 566.835 213.578 566.545 212.646 566.545C212.004 566.545 211.43 566.685 210.925 566.963C210.425 567.241 210.03 567.648 209.74 568.182C209.45 568.716 209.305 569.364 209.305 570.125ZM226.617 583.182C225.646 583.182 224.81 583.057 224.112 582.807C223.413 582.562 222.83 582.239 222.364 581.835C221.904 581.438 221.538 581.011 221.265 580.557L222.867 579.432C223.049 579.67 223.279 579.943 223.558 580.25C223.836 580.562 224.217 580.832 224.7 581.06C225.188 581.293 225.827 581.409 226.617 581.409C227.674 581.409 228.546 581.153 229.234 580.642C229.921 580.131 230.265 579.33 230.265 578.239V575.58H230.094C229.947 575.818 229.737 576.114 229.464 576.466C229.197 576.812 228.81 577.122 228.305 577.395C227.805 577.662 227.129 577.795 226.276 577.795C225.219 577.795 224.271 577.545 223.43 577.045C222.594 576.545 221.933 575.818 221.444 574.864C220.961 573.909 220.719 572.75 220.719 571.386C220.719 570.045 220.955 568.878 221.427 567.884C221.898 566.884 222.555 566.111 223.396 565.565C224.237 565.014 225.208 564.739 226.31 564.739C227.163 564.739 227.839 564.881 228.339 565.165C228.844 565.443 229.231 565.761 229.498 566.119C229.771 566.472 229.981 566.761 230.129 566.989H230.333V564.909H232.276V578.375C232.276 579.5 232.021 580.415 231.509 581.119C231.004 581.83 230.322 582.349 229.464 582.679C228.612 583.014 227.663 583.182 226.617 583.182ZM226.549 575.989C227.356 575.989 228.038 575.804 228.594 575.435C229.151 575.065 229.575 574.534 229.864 573.841C230.154 573.148 230.299 572.318 230.299 571.352C230.299 570.409 230.157 569.577 229.873 568.855C229.589 568.134 229.168 567.568 228.612 567.159C228.055 566.75 227.367 566.545 226.549 566.545C225.697 566.545 224.987 566.761 224.418 567.193C223.856 567.625 223.433 568.205 223.148 568.932C222.87 569.659 222.731 570.466 222.731 571.352C222.731 572.261 222.873 573.065 223.157 573.764C223.447 574.457 223.873 575.003 224.435 575.401C225.004 575.793 225.708 575.989 226.549 575.989Z" fill="black"/>
<path d="M215 252.226L209.226 258L215 263.774L220.774 258L215 252.226ZM214.293 356.707C214.683 357.098 215.317 357.098 215.707 356.707L222.071 350.343C222.462 349.953 222.462 349.319 222.071 348.929C221.681 348.538 221.047 348.538 220.657 348.929L215 354.586L209.343 348.929C208.953 348.538 208.319 348.538 207.929 348.929C207.538 349.319 207.538 349.953 207.929 350.343L214.293 356.707ZM214 258L214 356L216 356L216 258L214 258Z" fill="black"/>
<line x1="214" y1="258" x2="476.762" y2="258" stroke="black" stroke-width="2"/>
<rect x="382" y="66" width="191" height="75" rx="37.5" fill="white" stroke="black" stroke-width="2"/>
<path d="M460.172 94.2812L453.375 114H449.266L457.828 91.25H460.453L460.172 94.2812ZM465.859 114L459.047 94.2812L458.75 91.25H461.391L469.984 114H465.859ZM465.531 105.562V108.672H453.156V105.562H465.531ZM475.656 100.344V120.5H471.891V97.0938H475.359L475.656 100.344ZM486.672 105.391V105.719C486.672 106.948 486.526 108.089 486.234 109.141C485.953 110.182 485.531 111.094 484.969 111.875C484.417 112.646 483.734 113.245 482.922 113.672C482.109 114.099 481.172 114.312 480.109 114.312C479.057 114.312 478.135 114.12 477.344 113.734C476.562 113.339 475.901 112.781 475.359 112.062C474.818 111.344 474.38 110.5 474.047 109.531C473.724 108.552 473.495 107.479 473.359 106.312V105.047C473.495 103.807 473.724 102.682 474.047 101.672C474.38 100.661 474.818 99.7917 475.359 99.0625C475.901 98.3333 476.562 97.7708 477.344 97.375C478.125 96.9792 479.036 96.7812 480.078 96.7812C481.141 96.7812 482.083 96.9896 482.906 97.4062C483.729 97.8125 484.422 98.3958 484.984 99.1562C485.547 99.9062 485.969 100.812 486.25 101.875C486.531 102.927 486.672 104.099 486.672 105.391ZM482.906 105.719V105.391C482.906 104.609 482.833 103.885 482.688 103.219C482.542 102.542 482.312 101.948 482 101.438C481.688 100.927 481.286 100.531 480.797 100.25C480.318 99.9583 479.74 99.8125 479.062 99.8125C478.396 99.8125 477.823 99.9271 477.344 100.156C476.865 100.375 476.464 100.682 476.141 101.078C475.818 101.474 475.568 101.938 475.391 102.469C475.214 102.99 475.089 103.557 475.016 104.172V107.203C475.141 107.953 475.354 108.641 475.656 109.266C475.958 109.891 476.385 110.391 476.938 110.766C477.5 111.13 478.219 111.312 479.094 111.312C479.771 111.312 480.349 111.167 480.828 110.875C481.307 110.583 481.698 110.182 482 109.672C482.312 109.151 482.542 108.552 482.688 107.875C482.833 107.198 482.906 106.479 482.906 105.719ZM493.656 100.344V120.5H489.891V97.0938H493.359L493.656 100.344ZM504.672 105.391V105.719C504.672 106.948 504.526 108.089 504.234 109.141C503.953 110.182 503.531 111.094 502.969 111.875C502.417 112.646 501.734 113.245 500.922 113.672C500.109 114.099 499.172 114.312 498.109 114.312C497.057 114.312 496.135 114.12 495.344 113.734C494.562 113.339 493.901 112.781 493.359 112.062C492.818 111.344 492.38 110.5 492.047 109.531C491.724 108.552 491.495 107.479 491.359 106.312V105.047C491.495 103.807 491.724 102.682 492.047 101.672C492.38 100.661 492.818 99.7917 493.359 99.0625C493.901 98.3333 494.562 97.7708 495.344 97.375C496.125 96.9792 497.036 96.7812 498.078 96.7812C499.141 96.7812 500.083 96.9896 500.906 97.4062C501.729 97.8125 502.422 98.3958 502.984 99.1562C503.547 99.9062 503.969 100.812 504.25 101.875C504.531 102.927 504.672 104.099 504.672 105.391ZM500.906 105.719V105.391C500.906 104.609 500.833 103.885 500.688 103.219C500.542 102.542 500.312 101.948 500 101.438C499.688 100.927 499.286 100.531 498.797 100.25C498.318 99.9583 497.74 99.8125 497.062 99.8125C496.396 99.8125 495.823 99.9271 495.344 100.156C494.865 100.375 494.464 100.682 494.141 101.078C493.818 101.474 493.568 101.938 493.391 102.469C493.214 102.99 493.089 103.557 493.016 104.172V107.203C493.141 107.953 493.354 108.641 493.656 109.266C493.958 109.891 494.385 110.391 494.938 110.766C495.5 111.13 496.219 111.312 497.094 111.312C497.771 111.312 498.349 111.167 498.828 110.875C499.307 110.583 499.698 110.182 500 109.672C500.312 109.151 500.542 108.552 500.688 107.875C500.833 107.198 500.906 106.479 500.906 105.719Z" fill="black"/>
<rect x="675" y="66" width="191" height="75" rx="37.5" fill="white" stroke="black" stroke-width="2"/>
<path d="M762.75 107.594H766.656C766.531 109.083 766.115 110.411 765.406 111.578C764.698 112.734 763.703 113.646 762.422 114.312C761.141 114.979 759.583 115.312 757.75 115.312C756.344 115.312 755.078 115.062 753.953 114.562C752.828 114.052 751.865 113.333 751.062 112.406C750.26 111.469 749.646 110.339 749.219 109.016C748.802 107.693 748.594 106.214 748.594 104.578V102.688C748.594 101.052 748.807 99.5729 749.234 98.25C749.672 96.9271 750.297 95.7969 751.109 94.8594C751.922 93.9115 752.896 93.1875 754.031 92.6875C755.177 92.1875 756.464 91.9375 757.891 91.9375C759.703 91.9375 761.234 92.2708 762.484 92.9375C763.734 93.6042 764.703 94.526 765.391 95.7031C766.089 96.8802 766.516 98.2292 766.672 99.75H762.766C762.661 98.7708 762.432 97.9323 762.078 97.2344C761.734 96.5365 761.224 96.0052 760.547 95.6406C759.87 95.2656 758.984 95.0781 757.891 95.0781C756.995 95.0781 756.214 95.2448 755.547 95.5781C754.88 95.9115 754.323 96.401 753.875 97.0469C753.427 97.6927 753.089 98.4896 752.859 99.4375C752.641 100.375 752.531 101.448 752.531 102.656V104.578C752.531 105.724 752.63 106.766 752.828 107.703C753.036 108.63 753.349 109.427 753.766 110.094C754.193 110.76 754.734 111.276 755.391 111.641C756.047 112.005 756.833 112.188 757.75 112.188C758.865 112.188 759.766 112.01 760.453 111.656C761.151 111.302 761.677 110.786 762.031 110.109C762.396 109.422 762.635 108.583 762.75 107.594ZM784.469 111.891V115H773.047V111.891H784.469ZM774.141 92.25V115H770.219V92.25H774.141ZM791.688 92.25V115H787.766V92.25H791.688Z" fill="black"/>
<path d="M111.557 411V387.727H126.148V390.75H115.068V397.841H125.386V400.852H115.068V407.977H126.284V411H111.557ZM133.247 393.545L137.099 400.341L140.986 393.545H144.702L139.259 402.273L144.747 411H141.031L137.099 404.477L133.179 411H129.452L134.884 402.273L129.52 393.545H133.247ZM156.338 393.545V396.273H146.804V393.545H156.338ZM149.361 389.364H152.759V405.875C152.759 406.534 152.857 407.03 153.054 407.364C153.251 407.689 153.505 407.913 153.815 408.034C154.134 408.148 154.478 408.205 154.849 408.205C155.122 408.205 155.361 408.186 155.565 408.148C155.77 408.11 155.929 408.08 156.043 408.057L156.656 410.864C156.459 410.939 156.179 411.015 155.815 411.091C155.452 411.174 154.997 411.22 154.452 411.227C153.558 411.242 152.724 411.083 151.952 410.75C151.179 410.417 150.554 409.902 150.077 409.205C149.599 408.508 149.361 407.633 149.361 406.58V389.364ZM167.432 411.352C165.712 411.352 164.231 410.985 162.989 410.25C161.754 409.508 160.799 408.466 160.125 407.125C159.458 405.777 159.125 404.197 159.125 402.386C159.125 400.598 159.458 399.023 160.125 397.659C160.799 396.295 161.739 395.231 162.943 394.466C164.155 393.701 165.572 393.318 167.193 393.318C168.178 393.318 169.133 393.481 170.057 393.807C170.981 394.133 171.811 394.644 172.545 395.341C173.28 396.038 173.86 396.943 174.284 398.057C174.708 399.163 174.92 400.508 174.92 402.091V403.295H161.045V400.75H171.591C171.591 399.856 171.409 399.064 171.045 398.375C170.682 397.678 170.17 397.129 169.511 396.727C168.86 396.326 168.095 396.125 167.216 396.125C166.261 396.125 165.428 396.36 164.716 396.83C164.011 397.292 163.466 397.898 163.08 398.648C162.701 399.39 162.511 400.197 162.511 401.068V403.057C162.511 404.223 162.716 405.216 163.125 406.034C163.542 406.852 164.121 407.477 164.864 407.909C165.606 408.333 166.473 408.545 167.466 408.545C168.11 408.545 168.697 408.455 169.227 408.273C169.758 408.083 170.216 407.803 170.602 407.432C170.989 407.061 171.284 406.602 171.489 406.057L174.705 406.636C174.447 407.583 173.985 408.413 173.318 409.125C172.659 409.83 171.83 410.379 170.83 410.773C169.837 411.159 168.705 411.352 167.432 411.352ZM178.69 411V393.545H181.974V396.318H182.156C182.474 395.379 183.035 394.64 183.838 394.102C184.649 393.557 185.565 393.284 186.588 393.284C186.8 393.284 187.05 393.292 187.338 393.307C187.634 393.322 187.865 393.341 188.031 393.364V396.614C187.895 396.576 187.652 396.534 187.304 396.489C186.955 396.436 186.607 396.409 186.259 396.409C185.455 396.409 184.74 396.58 184.111 396.92C183.49 397.254 182.997 397.72 182.634 398.318C182.27 398.909 182.088 399.583 182.088 400.341V411H178.69ZM194.369 400.636V411H190.972V393.545H194.233V396.386H194.449C194.85 395.462 195.479 394.72 196.335 394.159C197.199 393.598 198.286 393.318 199.597 393.318C200.786 393.318 201.828 393.568 202.722 394.068C203.616 394.561 204.309 395.295 204.801 396.273C205.294 397.25 205.54 398.458 205.54 399.898V411H202.142V400.307C202.142 399.042 201.813 398.053 201.153 397.341C200.494 396.621 199.589 396.261 198.438 396.261C197.65 396.261 196.949 396.432 196.335 396.773C195.729 397.114 195.248 397.614 194.892 398.273C194.544 398.924 194.369 399.712 194.369 400.636ZM215.176 411.386C214.07 411.386 213.07 411.182 212.176 410.773C211.282 410.356 210.574 409.754 210.051 408.966C209.536 408.178 209.278 407.212 209.278 406.068C209.278 405.083 209.468 404.273 209.847 403.636C210.225 403 210.737 402.496 211.381 402.125C212.025 401.754 212.744 401.473 213.54 401.284C214.335 401.095 215.146 400.951 215.972 400.852C217.017 400.731 217.866 400.633 218.517 400.557C219.169 400.473 219.642 400.341 219.938 400.159C220.233 399.977 220.381 399.682 220.381 399.273V399.193C220.381 398.201 220.1 397.432 219.54 396.886C218.987 396.341 218.161 396.068 217.062 396.068C215.919 396.068 215.017 396.322 214.358 396.83C213.706 397.33 213.256 397.886 213.006 398.5L209.812 397.773C210.191 396.712 210.744 395.856 211.472 395.205C212.206 394.545 213.051 394.068 214.006 393.773C214.96 393.47 215.964 393.318 217.017 393.318C217.714 393.318 218.453 393.402 219.233 393.568C220.021 393.727 220.756 394.023 221.438 394.455C222.127 394.886 222.691 395.504 223.131 396.307C223.57 397.102 223.79 398.136 223.79 399.409V411H220.472V408.614H220.335C220.116 409.053 219.786 409.485 219.347 409.909C218.907 410.333 218.343 410.686 217.653 410.966C216.964 411.246 216.138 411.386 215.176 411.386ZM215.915 408.659C216.854 408.659 217.657 408.473 218.324 408.102C218.998 407.731 219.509 407.246 219.858 406.648C220.214 406.042 220.392 405.394 220.392 404.705V402.455C220.271 402.576 220.036 402.689 219.688 402.795C219.347 402.894 218.956 402.981 218.517 403.057C218.078 403.125 217.65 403.189 217.233 403.25C216.816 403.303 216.468 403.348 216.188 403.386C215.528 403.47 214.926 403.61 214.381 403.807C213.843 404.004 213.411 404.288 213.085 404.659C212.767 405.023 212.608 405.508 212.608 406.114C212.608 406.955 212.919 407.591 213.54 408.023C214.161 408.447 214.953 408.659 215.915 408.659ZM231.713 387.727V411H228.315V387.727H231.713Z" fill="black"/>
<path d="M191.682 422.727V446H188.284V422.727H191.682ZM196.253 446V428.545H199.651V446H196.253ZM197.969 425.852C197.378 425.852 196.87 425.655 196.446 425.261C196.029 424.86 195.821 424.383 195.821 423.83C195.821 423.269 196.029 422.792 196.446 422.398C196.87 421.996 197.378 421.795 197.969 421.795C198.56 421.795 199.063 421.996 199.48 422.398C199.904 422.792 200.116 423.269 200.116 423.83C200.116 424.383 199.904 424.86 199.48 425.261C199.063 425.655 198.56 425.852 197.969 425.852ZM204.494 446V422.727H207.892V431.375H208.097C208.294 431.011 208.578 430.591 208.949 430.114C209.32 429.636 209.835 429.22 210.494 428.864C211.153 428.5 212.025 428.318 213.108 428.318C214.517 428.318 215.775 428.674 216.881 429.386C217.987 430.098 218.854 431.125 219.483 432.466C220.119 433.807 220.438 435.42 220.438 437.307C220.438 439.193 220.123 440.811 219.494 442.159C218.866 443.5 218.002 444.534 216.903 445.261C215.805 445.981 214.551 446.341 213.142 446.341C212.081 446.341 211.214 446.163 210.54 445.807C209.873 445.451 209.35 445.034 208.972 444.557C208.593 444.08 208.301 443.655 208.097 443.284H207.812V446H204.494ZM207.824 437.273C207.824 438.5 208.002 439.576 208.358 440.5C208.714 441.424 209.229 442.148 209.903 442.67C210.578 443.186 211.403 443.443 212.381 443.443C213.396 443.443 214.244 443.174 214.926 442.636C215.608 442.091 216.123 441.352 216.472 440.42C216.828 439.489 217.006 438.439 217.006 437.273C217.006 436.121 216.831 435.087 216.483 434.17C216.142 433.254 215.627 432.53 214.938 432C214.256 431.47 213.403 431.205 212.381 431.205C211.396 431.205 210.562 431.458 209.881 431.966C209.206 432.473 208.695 433.182 208.347 434.091C207.998 435 207.824 436.061 207.824 437.273ZM224.253 446V428.545H227.537V431.318H227.719C228.037 430.379 228.598 429.64 229.401 429.102C230.211 428.557 231.128 428.284 232.151 428.284C232.363 428.284 232.613 428.292 232.901 428.307C233.196 428.322 233.427 428.341 233.594 428.364V431.614C233.457 431.576 233.215 431.534 232.866 431.489C232.518 431.436 232.17 431.409 231.821 431.409C231.018 431.409 230.302 431.58 229.673 431.92C229.052 432.254 228.56 432.72 228.196 433.318C227.832 433.909 227.651 434.583 227.651 435.341V446H224.253ZM241.457 446.386C240.351 446.386 239.351 446.182 238.457 445.773C237.563 445.356 236.855 444.754 236.332 443.966C235.817 443.178 235.56 442.212 235.56 441.068C235.56 440.083 235.749 439.273 236.128 438.636C236.507 438 237.018 437.496 237.662 437.125C238.306 436.754 239.026 436.473 239.821 436.284C240.616 436.095 241.427 435.951 242.253 435.852C243.298 435.731 244.147 435.633 244.798 435.557C245.45 435.473 245.923 435.341 246.219 435.159C246.514 434.977 246.662 434.682 246.662 434.273V434.193C246.662 433.201 246.382 432.432 245.821 431.886C245.268 431.341 244.442 431.068 243.344 431.068C242.2 431.068 241.298 431.322 240.639 431.83C239.988 432.33 239.537 432.886 239.287 433.5L236.094 432.773C236.473 431.712 237.026 430.856 237.753 430.205C238.488 429.545 239.332 429.068 240.287 428.773C241.241 428.47 242.245 428.318 243.298 428.318C243.995 428.318 244.734 428.402 245.514 428.568C246.302 428.727 247.037 429.023 247.719 429.455C248.408 429.886 248.973 430.504 249.412 431.307C249.851 432.102 250.071 433.136 250.071 434.409V446H246.753V443.614H246.616C246.397 444.053 246.067 444.485 245.628 444.909C245.188 445.333 244.624 445.686 243.935 445.966C243.245 446.246 242.42 446.386 241.457 446.386ZM242.196 443.659C243.135 443.659 243.938 443.473 244.605 443.102C245.279 442.731 245.791 442.246 246.139 441.648C246.495 441.042 246.673 440.394 246.673 439.705V437.455C246.552 437.576 246.317 437.689 245.969 437.795C245.628 437.894 245.238 437.981 244.798 438.057C244.359 438.125 243.931 438.189 243.514 438.25C243.098 438.303 242.749 438.348 242.469 438.386C241.81 438.47 241.207 438.61 240.662 438.807C240.124 439.004 239.692 439.288 239.366 439.659C239.048 440.023 238.889 440.508 238.889 441.114C238.889 441.955 239.2 442.591 239.821 443.023C240.442 443.447 241.234 443.659 242.196 443.659ZM254.597 446V428.545H257.881V431.318H258.062C258.381 430.379 258.941 429.64 259.744 429.102C260.555 428.557 261.472 428.284 262.494 428.284C262.706 428.284 262.956 428.292 263.244 428.307C263.54 428.322 263.771 428.341 263.938 428.364V431.614C263.801 431.576 263.559 431.534 263.21 431.489C262.862 431.436 262.513 431.409 262.165 431.409C261.362 431.409 260.646 431.58 260.017 431.92C259.396 432.254 258.903 432.72 258.54 433.318C258.176 433.909 257.994 434.583 257.994 435.341V446H254.597ZM266.878 446V428.545H270.276V446H266.878ZM268.594 425.852C268.003 425.852 267.495 425.655 267.071 425.261C266.654 424.86 266.446 424.383 266.446 423.83C266.446 423.269 266.654 422.792 267.071 422.398C267.495 421.996 268.003 421.795 268.594 421.795C269.185 421.795 269.688 421.996 270.105 422.398C270.529 422.792 270.741 423.269 270.741 423.83C270.741 424.383 270.529 424.86 270.105 425.261C269.688 425.655 269.185 425.852 268.594 425.852ZM282.369 446.352C280.65 446.352 279.169 445.985 277.926 445.25C276.691 444.508 275.737 443.466 275.062 442.125C274.396 440.777 274.062 439.197 274.062 437.386C274.062 435.598 274.396 434.023 275.062 432.659C275.737 431.295 276.676 430.231 277.881 429.466C279.093 428.701 280.509 428.318 282.131 428.318C283.116 428.318 284.07 428.481 284.994 428.807C285.919 429.133 286.748 429.644 287.483 430.341C288.218 431.038 288.797 431.943 289.222 433.057C289.646 434.163 289.858 435.508 289.858 437.091V438.295H275.983V435.75H286.528C286.528 434.856 286.347 434.064 285.983 433.375C285.619 432.678 285.108 432.129 284.449 431.727C283.797 431.326 283.032 431.125 282.153 431.125C281.199 431.125 280.366 431.36 279.653 431.83C278.949 432.292 278.403 432.898 278.017 433.648C277.638 434.39 277.449 435.197 277.449 436.068V438.057C277.449 439.223 277.653 440.216 278.062 441.034C278.479 441.852 279.059 442.477 279.801 442.909C280.544 443.333 281.411 443.545 282.403 443.545C283.047 443.545 283.634 443.455 284.165 443.273C284.695 443.083 285.153 442.803 285.54 442.432C285.926 442.061 286.222 441.602 286.426 441.057L289.642 441.636C289.384 442.583 288.922 443.413 288.256 444.125C287.597 444.83 286.767 445.379 285.767 445.773C284.775 446.159 283.642 446.352 282.369 446.352ZM306.707 432.807L303.628 433.352C303.499 432.958 303.295 432.583 303.014 432.227C302.741 431.871 302.37 431.58 301.901 431.352C301.431 431.125 300.844 431.011 300.139 431.011C299.177 431.011 298.374 431.227 297.73 431.659C297.086 432.083 296.764 432.633 296.764 433.307C296.764 433.89 296.98 434.36 297.412 434.716C297.844 435.072 298.541 435.364 299.503 435.591L302.276 436.227C303.882 436.598 305.079 437.17 305.866 437.943C306.654 438.716 307.048 439.72 307.048 440.955C307.048 442 306.745 442.932 306.139 443.75C305.541 444.561 304.704 445.197 303.628 445.659C302.56 446.121 301.321 446.352 299.912 446.352C297.957 446.352 296.363 445.936 295.128 445.102C293.893 444.261 293.135 443.068 292.855 441.523L296.139 441.023C296.344 441.879 296.764 442.527 297.401 442.966C298.037 443.398 298.866 443.614 299.889 443.614C301.003 443.614 301.893 443.383 302.56 442.92C303.226 442.451 303.56 441.879 303.56 441.205C303.56 440.659 303.355 440.201 302.946 439.83C302.545 439.458 301.927 439.178 301.094 438.989L298.139 438.341C296.51 437.97 295.306 437.379 294.526 436.568C293.753 435.758 293.366 434.731 293.366 433.489C293.366 432.458 293.654 431.557 294.23 430.784C294.806 430.011 295.601 429.409 296.616 428.977C297.632 428.538 298.795 428.318 300.105 428.318C301.991 428.318 303.476 428.727 304.56 429.545C305.643 430.356 306.359 431.443 306.707 432.807Z" fill="black"/>
<rect x="617" y="357" width="243" height="303" rx="9" fill="white" stroke="black" stroke-width="2"/>
<rect x="639" y="440" width="198" height="48" rx="9" fill="white" stroke="black" stroke-width="2"/>
<rect x="639" y="510" width="198" height="48" rx="9" fill="white" stroke="black" stroke-width="2"/>
<path d="M708.227 455.545V473H706.114V455.545H708.227ZM712.192 473V459.909H714.136V461.955H714.306C714.579 461.256 715.019 460.713 715.627 460.327C716.235 459.935 716.965 459.739 717.817 459.739C718.681 459.739 719.4 459.935 719.974 460.327C720.553 460.713 721.005 461.256 721.329 461.955H721.465C721.8 461.278 722.303 460.741 722.974 460.344C723.644 459.94 724.448 459.739 725.386 459.739C726.556 459.739 727.513 460.105 728.258 460.838C729.002 461.565 729.374 462.699 729.374 464.239V473H727.363V464.239C727.363 463.273 727.099 462.582 726.57 462.168C726.042 461.753 725.42 461.545 724.704 461.545C723.783 461.545 723.07 461.824 722.565 462.381C722.059 462.932 721.806 463.631 721.806 464.477V473H719.761V464.034C719.761 463.29 719.519 462.69 719.036 462.236C718.553 461.776 717.931 461.545 717.17 461.545C716.647 461.545 716.158 461.685 715.704 461.963C715.255 462.241 714.891 462.628 714.613 463.122C714.34 463.611 714.204 464.176 714.204 464.818V473H712.192ZM736.904 473.307C736.075 473.307 735.322 473.151 734.646 472.838C733.969 472.52 733.433 472.062 733.035 471.466C732.637 470.864 732.438 470.136 732.438 469.284C732.438 468.534 732.586 467.926 732.881 467.46C733.177 466.989 733.572 466.619 734.066 466.352C734.56 466.085 735.106 465.886 735.702 465.756C736.305 465.619 736.91 465.511 737.518 465.432C738.313 465.33 738.958 465.253 739.452 465.202C739.952 465.145 740.316 465.051 740.543 464.92C740.776 464.79 740.893 464.562 740.893 464.239V464.17C740.893 463.33 740.663 462.676 740.202 462.21C739.748 461.744 739.058 461.511 738.131 461.511C737.171 461.511 736.418 461.722 735.873 462.142C735.327 462.562 734.944 463.011 734.722 463.489L732.813 462.807C733.154 462.011 733.609 461.392 734.177 460.949C734.751 460.5 735.376 460.187 736.052 460.011C736.734 459.83 737.404 459.739 738.063 459.739C738.484 459.739 738.967 459.79 739.512 459.892C740.063 459.989 740.594 460.19 741.106 460.497C741.623 460.804 742.052 461.267 742.393 461.886C742.734 462.506 742.904 463.335 742.904 464.375V473H740.893V471.227H740.79C740.654 471.511 740.427 471.815 740.109 472.139C739.79 472.463 739.367 472.739 738.839 472.966C738.31 473.193 737.665 473.307 736.904 473.307ZM737.211 471.5C738.006 471.5 738.677 471.344 739.222 471.031C739.773 470.719 740.188 470.315 740.467 469.821C740.751 469.327 740.893 468.807 740.893 468.261V466.42C740.808 466.523 740.62 466.616 740.33 466.702C740.046 466.781 739.717 466.852 739.342 466.915C738.972 466.972 738.612 467.023 738.259 467.068C737.913 467.108 737.631 467.142 737.415 467.17C736.893 467.239 736.404 467.349 735.95 467.503C735.501 467.651 735.137 467.875 734.859 468.176C734.586 468.472 734.45 468.875 734.45 469.386C734.45 470.085 734.708 470.614 735.225 470.972C735.748 471.324 736.41 471.5 737.211 471.5ZM751.859 478.182C750.888 478.182 750.053 478.057 749.354 477.807C748.655 477.562 748.072 477.239 747.607 476.835C747.146 476.438 746.78 476.011 746.507 475.557L748.109 474.432C748.291 474.67 748.521 474.943 748.8 475.25C749.078 475.562 749.459 475.832 749.942 476.06C750.43 476.293 751.07 476.409 751.859 476.409C752.916 476.409 753.788 476.153 754.476 475.642C755.163 475.131 755.507 474.33 755.507 473.239V470.58H755.337C755.189 470.818 754.979 471.114 754.706 471.466C754.439 471.812 754.053 472.122 753.547 472.395C753.047 472.662 752.371 472.795 751.518 472.795C750.462 472.795 749.513 472.545 748.672 472.045C747.837 471.545 747.175 470.818 746.686 469.864C746.203 468.909 745.962 467.75 745.962 466.386C745.962 465.045 746.197 463.878 746.669 462.884C747.141 461.884 747.797 461.111 748.638 460.565C749.479 460.014 750.45 459.739 751.553 459.739C752.405 459.739 753.081 459.881 753.581 460.165C754.087 460.443 754.473 460.761 754.74 461.119C755.013 461.472 755.223 461.761 755.371 461.989H755.575V459.909H757.518V473.375C757.518 474.5 757.263 475.415 756.751 476.119C756.246 476.83 755.564 477.349 754.706 477.679C753.854 478.014 752.905 478.182 751.859 478.182ZM751.791 470.989C752.598 470.989 753.28 470.804 753.837 470.435C754.393 470.065 754.817 469.534 755.107 468.841C755.396 468.148 755.541 467.318 755.541 466.352C755.541 465.409 755.399 464.577 755.115 463.855C754.831 463.134 754.411 462.568 753.854 462.159C753.297 461.75 752.609 461.545 751.791 461.545C750.939 461.545 750.229 461.761 749.661 462.193C749.098 462.625 748.675 463.205 748.391 463.932C748.112 464.659 747.973 465.466 747.973 466.352C747.973 467.261 748.115 468.065 748.399 468.764C748.689 469.457 749.115 470.003 749.678 470.401C750.246 470.793 750.95 470.989 751.791 470.989ZM766.689 473.273C765.428 473.273 764.339 472.994 763.425 472.438C762.516 471.875 761.814 471.091 761.32 470.085C760.831 469.074 760.587 467.898 760.587 466.557C760.587 465.216 760.831 464.034 761.32 463.011C761.814 461.983 762.501 461.182 763.382 460.608C764.268 460.028 765.303 459.739 766.484 459.739C767.166 459.739 767.839 459.852 768.504 460.08C769.169 460.307 769.774 460.676 770.32 461.188C770.865 461.693 771.3 462.364 771.624 463.199C771.947 464.034 772.109 465.062 772.109 466.284V467.136H762.018V465.398H770.064C770.064 464.659 769.916 464 769.621 463.42C769.331 462.841 768.916 462.384 768.376 462.048C767.842 461.713 767.212 461.545 766.484 461.545C765.683 461.545 764.99 461.744 764.405 462.142C763.825 462.534 763.379 463.045 763.067 463.676C762.754 464.307 762.598 464.983 762.598 465.705V466.864C762.598 467.852 762.768 468.69 763.109 469.378C763.456 470.06 763.936 470.58 764.55 470.938C765.163 471.29 765.876 471.466 766.689 471.466C767.217 471.466 767.695 471.392 768.121 471.244C768.553 471.091 768.925 470.864 769.237 470.562C769.55 470.256 769.791 469.875 769.962 469.42L771.905 469.966C771.7 470.625 771.357 471.205 770.874 471.705C770.391 472.199 769.794 472.585 769.084 472.864C768.374 473.136 767.575 473.273 766.689 473.273Z" fill="black"/>
<path d="M678.114 543V525.545H684.011C685.381 525.545 686.5 525.793 687.369 526.287C688.244 526.776 688.892 527.438 689.312 528.273C689.733 529.108 689.943 530.04 689.943 531.068C689.943 532.097 689.733 533.031 689.312 533.872C688.898 534.713 688.256 535.384 687.386 535.884C686.517 536.378 685.403 536.625 684.045 536.625H679.818V534.75H683.977C684.915 534.75 685.668 534.588 686.236 534.264C686.804 533.94 687.216 533.503 687.472 532.952C687.733 532.395 687.864 531.767 687.864 531.068C687.864 530.369 687.733 529.744 687.472 529.193C687.216 528.642 686.801 528.21 686.227 527.898C685.653 527.58 684.892 527.42 683.943 527.42H680.227V543H678.114ZM693.075 543V529.909H695.018V531.886H695.155C695.393 531.239 695.825 530.713 696.45 530.31C697.075 529.906 697.78 529.705 698.564 529.705C698.712 529.705 698.896 529.707 699.118 529.713C699.339 529.719 699.507 529.727 699.621 529.739V531.784C699.553 531.767 699.396 531.741 699.152 531.707C698.913 531.668 698.661 531.648 698.393 531.648C697.757 531.648 697.189 531.781 696.689 532.048C696.195 532.31 695.803 532.673 695.513 533.139C695.229 533.599 695.087 534.125 695.087 534.716V543H693.075ZM706.925 543.273C705.743 543.273 704.706 542.991 703.814 542.429C702.928 541.866 702.234 541.08 701.734 540.068C701.24 539.057 700.993 537.875 700.993 536.523C700.993 535.159 701.24 533.969 701.734 532.952C702.234 531.935 702.928 531.145 703.814 530.582C704.706 530.02 705.743 529.739 706.925 529.739C708.107 529.739 709.141 530.02 710.027 530.582C710.919 531.145 711.612 531.935 712.107 532.952C712.607 533.969 712.857 535.159 712.857 536.523C712.857 537.875 712.607 539.057 712.107 540.068C711.612 541.08 710.919 541.866 710.027 542.429C709.141 542.991 708.107 543.273 706.925 543.273ZM706.925 541.466C707.822 541.466 708.561 541.236 709.141 540.776C709.72 540.315 710.149 539.71 710.428 538.96C710.706 538.21 710.845 537.398 710.845 536.523C710.845 535.648 710.706 534.832 710.428 534.077C710.149 533.321 709.72 532.71 709.141 532.244C708.561 531.778 707.822 531.545 706.925 531.545C706.027 531.545 705.288 531.778 704.709 532.244C704.129 532.71 703.7 533.321 703.422 534.077C703.143 534.832 703.004 535.648 703.004 536.523C703.004 537.398 703.143 538.21 703.422 538.96C703.7 539.71 704.129 540.315 704.709 540.776C705.288 541.236 706.027 541.466 706.925 541.466ZM721.245 543.273C720.018 543.273 718.961 542.983 718.075 542.403C717.188 541.824 716.506 541.026 716.029 540.009C715.552 538.991 715.313 537.83 715.313 536.523C715.313 535.193 715.558 534.02 716.046 533.003C716.54 531.98 717.228 531.182 718.109 530.608C718.995 530.028 720.029 529.739 721.211 529.739C722.131 529.739 722.961 529.909 723.7 530.25C724.438 530.591 725.043 531.068 725.515 531.682C725.987 532.295 726.279 533.011 726.393 533.83H724.381C724.228 533.233 723.887 532.705 723.359 532.244C722.836 531.778 722.131 531.545 721.245 531.545C720.461 531.545 719.773 531.75 719.183 532.159C718.597 532.562 718.14 533.134 717.81 533.872C717.487 534.605 717.325 535.466 717.325 536.455C717.325 537.466 717.484 538.347 717.802 539.097C718.126 539.847 718.58 540.429 719.165 540.844C719.756 541.259 720.45 541.466 721.245 541.466C721.768 541.466 722.242 541.375 722.668 541.193C723.094 541.011 723.455 540.75 723.751 540.409C724.046 540.068 724.256 539.659 724.381 539.182H726.393C726.279 539.955 725.998 540.651 725.549 541.27C725.106 541.884 724.518 542.372 723.785 542.736C723.058 543.094 722.211 543.273 721.245 543.273ZM734.822 543.273C733.56 543.273 732.472 542.994 731.558 542.438C730.648 541.875 729.947 541.091 729.452 540.085C728.964 539.074 728.719 537.898 728.719 536.557C728.719 535.216 728.964 534.034 729.452 533.011C729.947 531.983 730.634 531.182 731.515 530.608C732.401 530.028 733.435 529.739 734.617 529.739C735.299 529.739 735.972 529.852 736.637 530.08C737.302 530.307 737.907 530.676 738.452 531.188C738.998 531.693 739.433 532.364 739.756 533.199C740.08 534.034 740.242 535.062 740.242 536.284V537.136H730.151V535.398H738.197C738.197 534.659 738.049 534 737.754 533.42C737.464 532.841 737.049 532.384 736.509 532.048C735.975 531.713 735.344 531.545 734.617 531.545C733.816 531.545 733.123 531.744 732.538 532.142C731.958 532.534 731.512 533.045 731.2 533.676C730.887 534.307 730.731 534.983 730.731 535.705V536.864C730.731 537.852 730.901 538.69 731.242 539.378C731.589 540.06 732.069 540.58 732.683 540.938C733.296 541.29 734.009 541.466 734.822 541.466C735.35 541.466 735.827 541.392 736.254 541.244C736.685 541.091 737.058 540.864 737.37 540.562C737.683 540.256 737.924 539.875 738.094 539.42L740.038 539.966C739.833 540.625 739.489 541.205 739.006 541.705C738.523 542.199 737.927 542.585 737.217 542.864C736.506 543.136 735.708 543.273 734.822 543.273ZM752.575 532.841L750.768 533.352C750.654 533.051 750.487 532.759 750.265 532.474C750.049 532.185 749.754 531.946 749.379 531.759C749.004 531.571 748.523 531.477 747.938 531.477C747.137 531.477 746.469 531.662 745.935 532.031C745.407 532.395 745.143 532.858 745.143 533.42C745.143 533.92 745.325 534.315 745.688 534.605C746.052 534.895 746.62 535.136 747.393 535.33L749.336 535.807C750.506 536.091 751.379 536.526 751.952 537.111C752.526 537.69 752.813 538.437 752.813 539.352C752.813 540.102 752.597 540.773 752.165 541.364C751.739 541.955 751.143 542.42 750.376 542.761C749.609 543.102 748.717 543.273 747.7 543.273C746.364 543.273 745.259 542.983 744.384 542.403C743.509 541.824 742.955 540.977 742.722 539.864L744.631 539.386C744.813 540.091 745.157 540.619 745.663 540.972C746.174 541.324 746.842 541.5 747.665 541.5C748.603 541.5 749.347 541.301 749.898 540.903C750.455 540.5 750.734 540.017 750.734 539.455C750.734 539 750.575 538.619 750.256 538.312C749.938 538 749.45 537.767 748.79 537.614L746.609 537.102C745.41 536.818 744.529 536.378 743.967 535.781C743.41 535.179 743.131 534.426 743.131 533.523C743.131 532.784 743.339 532.131 743.754 531.562C744.174 530.994 744.745 530.548 745.467 530.224C746.194 529.901 747.018 529.739 747.938 529.739C749.234 529.739 750.251 530.023 750.989 530.591C751.734 531.159 752.262 531.909 752.575 532.841ZM765.114 532.841L763.307 533.352C763.193 533.051 763.026 532.759 762.804 532.474C762.588 532.185 762.293 531.946 761.918 531.759C761.543 531.571 761.062 531.477 760.477 531.477C759.676 531.477 759.009 531.662 758.474 532.031C757.946 532.395 757.682 532.858 757.682 533.42C757.682 533.92 757.864 534.315 758.227 534.605C758.591 534.895 759.159 535.136 759.932 535.33L761.875 535.807C763.045 536.091 763.918 536.526 764.491 537.111C765.065 537.69 765.352 538.437 765.352 539.352C765.352 540.102 765.136 540.773 764.705 541.364C764.278 541.955 763.682 542.42 762.915 542.761C762.148 543.102 761.256 543.273 760.239 543.273C758.903 543.273 757.798 542.983 756.923 542.403C756.048 541.824 755.494 540.977 755.261 539.864L757.17 539.386C757.352 540.091 757.696 540.619 758.202 540.972C758.713 541.324 759.381 541.5 760.205 541.5C761.142 541.5 761.886 541.301 762.438 540.903C762.994 540.5 763.273 540.017 763.273 539.455C763.273 539 763.114 538.619 762.795 538.312C762.477 538 761.989 537.767 761.33 537.614L759.148 537.102C757.949 536.818 757.068 536.378 756.506 535.781C755.949 535.179 755.67 534.426 755.67 533.523C755.67 532.784 755.878 532.131 756.293 531.562C756.713 530.994 757.284 530.548 758.006 530.224C758.733 529.901 759.557 529.739 760.477 529.739C761.773 529.739 762.79 530.023 763.528 530.591C764.273 531.159 764.801 531.909 765.114 532.841ZM768.38 543V529.909H770.391V543H768.38ZM769.403 527.727C769.011 527.727 768.673 527.594 768.388 527.327C768.11 527.06 767.971 526.739 767.971 526.364C767.971 525.989 768.11 525.668 768.388 525.401C768.673 525.134 769.011 525 769.403 525C769.795 525 770.13 525.134 770.408 525.401C770.692 525.668 770.835 525.989 770.835 526.364C770.835 526.739 770.692 527.06 770.408 527.327C770.13 527.594 769.795 527.727 769.403 527.727ZM776.087 535.125V543H774.075V529.909H776.018V531.955H776.189C776.496 531.29 776.962 530.756 777.587 530.352C778.212 529.943 779.018 529.739 780.007 529.739C780.893 529.739 781.669 529.92 782.334 530.284C782.999 530.642 783.516 531.188 783.885 531.92C784.254 532.648 784.439 533.568 784.439 534.682V543H782.428V534.818C782.428 533.79 782.161 532.989 781.626 532.415C781.092 531.835 780.359 531.545 779.428 531.545C778.786 531.545 778.212 531.685 777.706 531.963C777.206 532.241 776.811 532.648 776.521 533.182C776.232 533.716 776.087 534.364 776.087 535.125ZM793.398 548.182C792.427 548.182 791.592 548.057 790.893 547.807C790.194 547.562 789.612 547.239 789.146 546.835C788.685 546.438 788.319 546.011 788.046 545.557L789.648 544.432C789.83 544.67 790.06 544.943 790.339 545.25C790.617 545.562 790.998 545.832 791.481 546.06C791.969 546.293 792.609 546.409 793.398 546.409C794.455 546.409 795.327 546.153 796.015 545.642C796.702 545.131 797.046 544.33 797.046 543.239V540.58H796.876C796.728 540.818 796.518 541.114 796.245 541.466C795.978 541.812 795.592 542.122 795.086 542.395C794.586 542.662 793.91 542.795 793.058 542.795C792.001 542.795 791.052 542.545 790.211 542.045C789.376 541.545 788.714 540.818 788.225 539.864C787.742 538.909 787.501 537.75 787.501 536.386C787.501 535.045 787.737 533.878 788.208 532.884C788.68 531.884 789.336 531.111 790.177 530.565C791.018 530.014 791.989 529.739 793.092 529.739C793.944 529.739 794.62 529.881 795.12 530.165C795.626 530.443 796.012 530.761 796.279 531.119C796.552 531.472 796.762 531.761 796.91 531.989H797.114V529.909H799.058V543.375C799.058 544.5 798.802 545.415 798.29 546.119C797.785 546.83 797.103 547.349 796.245 547.679C795.393 548.014 794.444 548.182 793.398 548.182ZM793.33 540.989C794.137 540.989 794.819 540.804 795.376 540.435C795.933 540.065 796.356 539.534 796.646 538.841C796.935 538.148 797.08 537.318 797.08 536.352C797.08 535.409 796.938 534.577 796.654 533.855C796.37 533.134 795.95 532.568 795.393 532.159C794.836 531.75 794.148 531.545 793.33 531.545C792.478 531.545 791.768 531.761 791.2 532.193C790.637 532.625 790.214 533.205 789.93 533.932C789.651 534.659 789.512 535.466 789.512 536.352C789.512 537.261 789.654 538.065 789.938 538.764C790.228 539.457 790.654 540.003 791.217 540.401C791.785 540.793 792.489 540.989 793.33 540.989Z" fill="black"/>
<rect x="639" y="580" width="198" height="48" rx="9" fill="white" stroke="black" stroke-width="2"/>
<path d="M704.114 613V595.545H710.011C711.381 595.545 712.5 595.793 713.369 596.287C714.244 596.776 714.892 597.438 715.312 598.273C715.733 599.108 715.943 600.04 715.943 601.068C715.943 602.097 715.733 603.031 715.312 603.872C714.898 604.713 714.256 605.384 713.386 605.884C712.517 606.378 711.403 606.625 710.045 606.625H705.818V604.75H709.977C710.915 604.75 711.668 604.588 712.236 604.264C712.804 603.94 713.216 603.503 713.472 602.952C713.733 602.395 713.864 601.767 713.864 601.068C713.864 600.369 713.733 599.744 713.472 599.193C713.216 598.642 712.801 598.21 712.227 597.898C711.653 597.58 710.892 597.42 709.943 597.42H706.227V613H704.114ZM722.928 613.307C722.098 613.307 721.345 613.151 720.669 612.838C719.993 612.52 719.456 612.062 719.058 611.466C718.661 610.864 718.462 610.136 718.462 609.284C718.462 608.534 718.609 607.926 718.905 607.46C719.2 606.989 719.595 606.619 720.089 606.352C720.584 606.085 721.129 605.886 721.726 605.756C722.328 605.619 722.933 605.511 723.541 605.432C724.337 605.33 724.982 605.253 725.476 605.202C725.976 605.145 726.339 605.051 726.567 604.92C726.8 604.79 726.916 604.562 726.916 604.239V604.17C726.916 603.33 726.686 602.676 726.226 602.21C725.771 601.744 725.081 601.511 724.155 601.511C723.195 601.511 722.442 601.722 721.896 602.142C721.351 602.562 720.967 603.011 720.746 603.489L718.837 602.807C719.178 602.011 719.632 601.392 720.2 600.949C720.774 600.5 721.399 600.187 722.075 600.011C722.757 599.83 723.428 599.739 724.087 599.739C724.507 599.739 724.99 599.79 725.536 599.892C726.087 599.989 726.618 600.19 727.129 600.497C727.646 600.804 728.075 601.267 728.416 601.886C728.757 602.506 728.928 603.335 728.928 604.375V613H726.916V611.227H726.814C726.678 611.511 726.45 611.815 726.132 612.139C725.814 612.463 725.391 612.739 724.862 612.966C724.334 613.193 723.689 613.307 722.928 613.307ZM723.234 611.5C724.03 611.5 724.7 611.344 725.246 611.031C725.797 610.719 726.212 610.315 726.49 609.821C726.774 609.327 726.916 608.807 726.916 608.261V606.42C726.831 606.523 726.643 606.616 726.354 606.702C726.07 606.781 725.74 606.852 725.365 606.915C724.996 606.972 724.635 607.023 724.283 607.068C723.936 607.108 723.655 607.142 723.439 607.17C722.916 607.239 722.428 607.349 721.973 607.503C721.524 607.651 721.161 607.875 720.882 608.176C720.609 608.472 720.473 608.875 720.473 609.386C720.473 610.085 720.732 610.614 721.249 610.972C721.771 611.324 722.433 611.5 723.234 611.5ZM732.599 613V599.909H734.542V601.886H734.678C734.917 601.239 735.349 600.713 735.974 600.31C736.599 599.906 737.303 599.705 738.087 599.705C738.235 599.705 738.42 599.707 738.641 599.713C738.863 599.719 739.031 599.727 739.144 599.739V601.784C739.076 601.767 738.92 601.741 738.675 601.707C738.437 601.668 738.184 601.648 737.917 601.648C737.281 601.648 736.712 601.781 736.212 602.048C735.718 602.31 735.326 602.673 735.036 603.139C734.752 603.599 734.61 604.125 734.61 604.716V613H732.599ZM750.801 602.841L748.994 603.352C748.881 603.051 748.713 602.759 748.491 602.474C748.276 602.185 747.98 601.946 747.605 601.759C747.23 601.571 746.75 601.477 746.165 601.477C745.364 601.477 744.696 601.662 744.162 602.031C743.634 602.395 743.369 602.858 743.369 603.42C743.369 603.92 743.551 604.315 743.915 604.605C744.278 604.895 744.847 605.136 745.619 605.33L747.562 605.807C748.733 606.091 749.605 606.526 750.179 607.111C750.753 607.69 751.04 608.437 751.04 609.352C751.04 610.102 750.824 610.773 750.392 611.364C749.966 611.955 749.369 612.42 748.602 612.761C747.835 613.102 746.943 613.273 745.926 613.273C744.591 613.273 743.486 612.983 742.611 612.403C741.736 611.824 741.182 610.977 740.949 609.864L742.858 609.386C743.04 610.091 743.384 610.619 743.889 610.972C744.401 611.324 745.068 611.5 745.892 611.5C746.83 611.5 747.574 611.301 748.125 610.903C748.682 610.5 748.96 610.017 748.96 609.455C748.96 609 748.801 608.619 748.483 608.312C748.165 608 747.676 607.767 747.017 607.614L744.835 607.102C743.636 606.818 742.756 606.378 742.193 605.781C741.636 605.179 741.358 604.426 741.358 603.523C741.358 602.784 741.565 602.131 741.98 601.562C742.401 600.994 742.972 600.548 743.693 600.224C744.42 599.901 745.244 599.739 746.165 599.739C747.46 599.739 748.477 600.023 749.216 600.591C749.96 601.159 750.489 601.909 750.801 602.841ZM759.556 613.273C758.295 613.273 757.207 612.994 756.292 612.438C755.383 611.875 754.681 611.091 754.187 610.085C753.698 609.074 753.454 607.898 753.454 606.557C753.454 605.216 753.698 604.034 754.187 603.011C754.681 601.983 755.369 601.182 756.249 600.608C757.136 600.028 758.17 599.739 759.352 599.739C760.033 599.739 760.707 599.852 761.371 600.08C762.036 600.307 762.641 600.676 763.187 601.188C763.732 601.693 764.167 602.364 764.491 603.199C764.815 604.034 764.977 605.062 764.977 606.284V607.136H754.886V605.398H762.931C762.931 604.659 762.783 604 762.488 603.42C762.198 602.841 761.783 602.384 761.244 602.048C760.71 601.713 760.079 601.545 759.352 601.545C758.55 601.545 757.857 601.744 757.272 602.142C756.692 602.534 756.246 603.045 755.934 603.676C755.621 604.307 755.465 604.983 755.465 605.705V606.864C755.465 607.852 755.636 608.69 755.977 609.378C756.323 610.06 756.803 610.58 757.417 610.938C758.031 611.29 758.744 611.466 759.556 611.466C760.085 611.466 760.562 611.392 760.988 611.244C761.42 611.091 761.792 610.864 762.104 610.562C762.417 610.256 762.658 609.875 762.829 609.42L764.772 609.966C764.567 610.625 764.224 611.205 763.741 611.705C763.258 612.199 762.661 612.585 761.951 612.864C761.241 613.136 760.442 613.273 759.556 613.273ZM768.036 613V599.909H769.979V601.886H770.116C770.354 601.239 770.786 600.713 771.411 600.31C772.036 599.906 772.741 599.705 773.525 599.705C773.673 599.705 773.857 599.707 774.079 599.713C774.3 599.719 774.468 599.727 774.582 599.739V601.784C774.513 601.767 774.357 601.741 774.113 601.707C773.874 601.668 773.621 601.648 773.354 601.648C772.718 601.648 772.15 601.781 771.65 602.048C771.156 602.31 770.763 602.673 770.474 603.139C770.19 603.599 770.048 604.125 770.048 604.716V613H768.036Z" fill="black"/>
<path d="M640.557 387.727H644.818L652.227 405.818H652.5L659.909 387.727H664.17V411H660.83V394.159H660.614L653.75 410.966H650.977L644.114 394.148H643.898V411H640.557V387.727ZM676.355 411.352C674.719 411.352 673.291 410.977 672.071 410.227C670.851 409.477 669.904 408.428 669.23 407.08C668.556 405.731 668.219 404.155 668.219 402.352C668.219 400.542 668.556 398.958 669.23 397.602C669.904 396.246 670.851 395.193 672.071 394.443C673.291 393.693 674.719 393.318 676.355 393.318C677.991 393.318 679.42 393.693 680.639 394.443C681.859 395.193 682.806 396.246 683.48 397.602C684.154 398.958 684.491 400.542 684.491 402.352C684.491 404.155 684.154 405.731 683.48 407.08C682.806 408.428 681.859 409.477 680.639 410.227C679.42 410.977 677.991 411.352 676.355 411.352ZM676.366 408.5C677.427 408.5 678.306 408.22 679.003 407.659C679.7 407.098 680.215 406.352 680.548 405.42C680.889 404.489 681.06 403.462 681.06 402.341C681.06 401.227 680.889 400.205 680.548 399.273C680.215 398.333 679.7 397.58 679.003 397.011C678.306 396.443 677.427 396.159 676.366 396.159C675.298 396.159 674.412 396.443 673.707 397.011C673.01 397.58 672.491 398.333 672.151 399.273C671.817 400.205 671.651 401.227 671.651 402.341C671.651 403.462 671.817 404.489 672.151 405.42C672.491 406.352 673.01 407.098 673.707 407.659C674.412 408.22 675.298 408.5 676.366 408.5ZM694.818 411.341C693.409 411.341 692.152 410.981 691.045 410.261C689.947 409.534 689.083 408.5 688.455 407.159C687.833 405.811 687.523 404.193 687.523 402.307C687.523 400.42 687.837 398.807 688.466 397.466C689.102 396.125 689.973 395.098 691.08 394.386C692.186 393.674 693.439 393.318 694.841 393.318C695.924 393.318 696.795 393.5 697.455 393.864C698.121 394.22 698.636 394.636 699 395.114C699.371 395.591 699.659 396.011 699.864 396.375H700.068V387.727H703.466V411H700.148V408.284H699.864C699.659 408.655 699.364 409.08 698.977 409.557C698.598 410.034 698.076 410.451 697.409 410.807C696.742 411.163 695.879 411.341 694.818 411.341ZM695.568 408.443C696.545 408.443 697.371 408.186 698.045 407.67C698.727 407.148 699.242 406.424 699.591 405.5C699.947 404.576 700.125 403.5 700.125 402.273C700.125 401.061 699.951 400 699.602 399.091C699.254 398.182 698.742 397.473 698.068 396.966C697.394 396.458 696.561 396.205 695.568 396.205C694.545 396.205 693.693 396.47 693.011 397C692.33 397.53 691.814 398.254 691.466 399.17C691.125 400.087 690.955 401.121 690.955 402.273C690.955 403.439 691.129 404.489 691.477 405.42C691.826 406.352 692.341 407.091 693.023 407.636C693.712 408.174 694.561 408.443 695.568 408.443ZM719.372 403.761V393.545H722.781V411H719.44V407.977H719.259C718.857 408.909 718.213 409.686 717.327 410.307C716.448 410.92 715.353 411.227 714.043 411.227C712.921 411.227 711.929 410.981 711.065 410.489C710.209 409.989 709.535 409.25 709.043 408.273C708.558 407.295 708.315 406.087 708.315 404.648V393.545H711.713V404.239C711.713 405.428 712.043 406.375 712.702 407.08C713.361 407.784 714.217 408.136 715.27 408.136C715.906 408.136 716.539 407.977 717.168 407.659C717.804 407.341 718.33 406.86 718.747 406.216C719.171 405.572 719.38 404.754 719.372 403.761ZM730.744 387.727V411H727.347V387.727H730.744ZM742.838 411.352C741.118 411.352 739.637 410.985 738.395 410.25C737.16 409.508 736.205 408.466 735.531 407.125C734.865 405.777 734.531 404.197 734.531 402.386C734.531 400.598 734.865 399.023 735.531 397.659C736.205 396.295 737.145 395.231 738.349 394.466C739.562 393.701 740.978 393.318 742.599 393.318C743.584 393.318 744.539 393.481 745.463 393.807C746.387 394.133 747.217 394.644 747.952 395.341C748.687 396.038 749.266 396.943 749.69 398.057C750.115 399.163 750.327 400.508 750.327 402.091V403.295H736.452V400.75H746.997C746.997 399.856 746.815 399.064 746.452 398.375C746.088 397.678 745.577 397.129 744.918 396.727C744.266 396.326 743.501 396.125 742.622 396.125C741.668 396.125 740.834 396.36 740.122 396.83C739.418 397.292 738.872 397.898 738.486 398.648C738.107 399.39 737.918 400.197 737.918 401.068V403.057C737.918 404.223 738.122 405.216 738.531 406.034C738.948 406.852 739.527 407.477 740.27 407.909C741.012 408.333 741.88 408.545 742.872 408.545C743.516 408.545 744.103 408.455 744.634 408.273C745.164 408.083 745.622 407.803 746.009 407.432C746.395 407.061 746.69 406.602 746.895 406.057L750.111 406.636C749.853 407.583 749.391 408.413 748.724 409.125C748.065 409.83 747.236 410.379 746.236 410.773C745.243 411.159 744.111 411.352 742.838 411.352ZM767.176 397.807L764.097 398.352C763.968 397.958 763.763 397.583 763.483 397.227C763.21 396.871 762.839 396.58 762.369 396.352C761.9 396.125 761.313 396.011 760.608 396.011C759.646 396.011 758.843 396.227 758.199 396.659C757.555 397.083 757.233 397.633 757.233 398.307C757.233 398.89 757.449 399.36 757.881 399.716C758.313 400.072 759.009 400.364 759.972 400.591L762.744 401.227C764.35 401.598 765.547 402.17 766.335 402.943C767.123 403.716 767.517 404.72 767.517 405.955C767.517 407 767.214 407.932 766.608 408.75C766.009 409.561 765.172 410.197 764.097 410.659C763.028 411.121 761.79 411.352 760.381 411.352C758.426 411.352 756.831 410.936 755.597 410.102C754.362 409.261 753.604 408.068 753.324 406.523L756.608 406.023C756.813 406.879 757.233 407.527 757.869 407.966C758.506 408.398 759.335 408.614 760.358 408.614C761.472 408.614 762.362 408.383 763.028 407.92C763.695 407.451 764.028 406.879 764.028 406.205C764.028 405.659 763.824 405.201 763.415 404.83C763.013 404.458 762.396 404.178 761.562 403.989L758.608 403.341C756.979 402.97 755.775 402.379 754.994 401.568C754.222 400.758 753.835 399.731 753.835 398.489C753.835 397.458 754.123 396.557 754.699 395.784C755.275 395.011 756.07 394.409 757.085 393.977C758.1 393.538 759.263 393.318 760.574 393.318C762.46 393.318 763.945 393.727 765.028 394.545C766.112 395.356 766.828 396.443 767.176 397.807Z" fill="black"/>
<path d="M477 263.774L482.774 258L477 252.226L471.226 258L477 263.774ZM477 147.333C479.946 147.333 482.333 144.946 482.333 142C482.333 139.054 479.946 136.667 477 136.667C474.054 136.667 471.667 139.054 471.667 142C471.667 144.946 474.054 147.333 477 147.333ZM478 258V142H476V258H478Z" fill="black"/>
<path d="M303.667 499C303.667 501.946 306.054 504.333 309 504.333C311.946 504.333 314.333 501.946 314.333 499C314.333 496.054 311.946 493.667 309 493.667C306.054 493.667 303.667 496.054 303.667 499ZM482.773 499L477 493.226L471.226 499L477 504.774L482.773 499ZM309 500H477V498H309V500Z" fill="black"/>
<path d="M303.667 569C303.667 571.946 306.054 574.333 309 574.333C311.946 574.333 314.333 571.946 314.333 569C314.333 566.054 311.946 563.667 309 563.667C306.054 563.667 303.667 566.054 303.667 569ZM482.773 569L477 563.226L471.226 569L477 574.774L482.773 569ZM309 570H477V568H309V570Z" fill="black"/>
<path d="M831.667 604C831.667 606.946 834.054 609.333 837 609.333C839.946 609.333 842.333 606.946 842.333 604C842.333 601.054 839.946 598.667 837 598.667C834.054 598.667 831.667 601.054 831.667 604ZM935.774 604L930 598.226L924.226 604L930 609.774L935.774 604ZM837 605H930V603H837V605Z" fill="black"/>
<path d="M638.707 464.707C639.098 464.317 639.098 463.683 638.707 463.293L632.343 456.929C631.953 456.538 631.319 456.538 630.929 456.929C630.538 457.319 630.538 457.953 630.929 458.343L636.586 464L630.929 469.657C630.538 470.047 630.538 470.681 630.929 471.071C631.319 471.462 631.953 471.462 632.343 471.071L638.707 464.707ZM477 465L638 465L638 463L477 463L477 465Z" fill="black"/>
<path d="M638.707 605.707C639.098 605.317 639.098 604.683 638.707 604.293L632.343 597.929C631.953 597.538 631.319 597.538 630.929 597.929C630.538 598.319 630.538 598.953 630.929 599.343L636.586 605L630.929 610.657C630.538 611.047 630.538 611.681 630.929 612.071C631.319 612.462 631.953 612.462 632.343 612.071L638.707 605.707ZM477 606L638 606L638 604L477 604L477 606Z" fill="black"/>
<path d="M477 458.226L471.226 464L477 469.774L482.774 464L477 458.226ZM476 464L476 497L478 497L478 464L476 464Z" fill="black"/>
<path d="M477 610.774L482.774 605L477 599.226L471.226 605L477 610.774ZM476 569L476 605L478 605L478 569L476 569Z" fill="black"/>
<path d="M838.293 453.293C837.902 453.683 837.902 454.317 838.293 454.707L844.657 461.071C845.047 461.462 845.681 461.462 846.071 461.071C846.462 460.681 846.462 460.047 846.071 459.657L840.414 454L846.071 448.343C846.462 447.953 846.462 447.319 846.071 446.929C845.681 446.538 845.047 446.538 844.657 446.929L838.293 453.293ZM839 455H930V453H839V455Z" fill="black"/>
<path d="M838.293 473.293C837.902 473.683 837.902 474.317 838.293 474.707L844.657 481.071C845.047 481.462 845.681 481.462 846.071 481.071C846.462 480.681 846.462 480.047 846.071 479.657L840.414 474L846.071 468.343C846.462 467.953 846.462 467.319 846.071 466.929C845.681 466.538 845.047 466.538 844.657 466.929L838.293 473.293ZM839 475H889V473H839V475Z" fill="black"/>
<path d="M831.667 524C831.667 526.946 834.054 529.333 837 529.333C839.946 529.333 842.333 526.946 842.333 524C842.333 521.054 839.946 518.667 837 518.667C834.054 518.667 831.667 521.054 831.667 524ZM894.774 524L889 518.226L883.226 524L889 529.774L894.774 524ZM837 525H889V523H837V525Z" fill="black"/>
<path d="M838.293 543.293C837.902 543.683 837.902 544.317 838.293 544.707L844.657 551.071C845.047 551.462 845.681 551.462 846.071 551.071C846.462 550.681 846.462 550.047 846.071 549.657L840.414 544L846.071 538.343C846.462 537.953 846.462 537.319 846.071 536.929C845.681 536.538 845.047 536.538 844.657 536.929L838.293 543.293ZM935.774 544L930 538.226L924.226 544L930 549.774L935.774 544ZM839 545H930V543H839V545Z" fill="black"/>
<path d="M889 468.226L883.226 474L889 479.774L894.774 474L889 468.226ZM890 524L890 474L888 474L888 524L890 524Z" fill="black"/>
</svg>
